<?xml version="1.0" encoding="utf-8"?>
<!-- Generator: Adobe Illustrator 16.0.0, SVG Export Plug-In . SVG Version: 6.00 Build 0)  -->
<!DOCTYPE svg PUBLIC "-//W3C//DTD SVG 1.1//EN" "http://www.w3.org/Graphics/SVG/1.1/DTD/svg11.dtd">
<svg version="1.1" id="Layer_1" xmlns="http://www.w3.org/2000/svg" xmlns:xlink="http://www.w3.org/1999/xlink" x="0px" y="0px"
	 width="324.166px" height="79.667px" viewBox="0 0 324.166 79.667" enable-background="new 0 0 324.166 79.667"
	 xml:space="preserve">
<path fill="none" stroke="#000000" stroke-miterlimit="10" d="M250.909-34.665"/>
<path fill="none" stroke="#000000" stroke-miterlimit="10" d="M65.333,84.335"/>
<path id="rabbit" fill="#FFFFFF" stroke="#010101" stroke-miterlimit="10" d="M61.83,9.487c-1.221-0.019-2.169,0.553-2.169,1.719
	c0,1.436-0.362,7.536,0.175,9.51c0.539,1.974,2.691,4.861,4.307,6.82c1.256,1.524,0.541,5.199,0.541,6.994
	c0,1.794-0.36,3.232-1.078,3.232c-0.717,0-1.791,0.717-2.51,1.435c-0.717,0.718-1.436,1.616-2.332,0.898
	c-0.897-0.718-2.515-1.434-5.385-1.972c-2.871-0.539-7.714-0.004-10.764,1.073c-3.05,1.076-9.512,6.999-11.306,9.688
	c-1.794,2.691-1.971,10.943-1.791,12.199c0.179,1.256-0.363,2.156-1.26,1.08s-1.61-0.537-1.61-0.537s-0.898,1.793-0.898,2.688
	c0,0.896,0.356,1.791,0.356,1.791s-1.435,1.079-1.435,1.797c0,0.719,1.436,1.977,2.333,3.053c0.897,1.074,3.948,3.229,5.204,3.051
	c1.256-0.18,3.589-0.002,4.486,0.537s3.049,1.256,5.74,1.437s10.225,0.717,12.199,0.717c1.975,0,2.516-0.356,3.412-1.254
	s-0.721-1.978-1.26-3.231c-0.538-1.256,1.797-0.895,2.514-1.071c0.719-0.181,2.694-1.437,3.949-1.437
	c1.257,0,1.076,1.254,2.689,1.973c1.615,0.719,3.946,3.049,5.742,3.406c1.793,0.357,5.92,0.002,7.354-0.537
	c1.437-0.537,1.256-1.791,0-2.688c-1.257-0.896-4.304-2.519-4.843-3.412c-0.539-0.896-0.717-1.976,0.181-2.87
	c0.897-0.896,1.792-0.535,3.228-1.255c1.436-0.718,1.973-2.874,1.973-4.13s0.171-2.621,0.717-3.406
	c0.459-0.656,0.637-2.761,0.662-4.193c0.027-1.533-0.66-1.902-1.198-2.801c-0.538-0.896,0.536-2.152,1.255-2.152
	c0.717,0,3.947-0.541,5.203-1.078c1.256-0.539,2.516-2.873,3.412-3.949s0.178-3.407-1.078-4.125
	c-1.256-0.717-1.258-2.693-2.334-3.949c-1.076-1.256-2.33-3.945-3.406-4.842c-1.076-0.897-3.59-1.616-4.486-1.616
	s-1.436,0-1.436-0.718c0-0.717-0.181-1.611-0.181-3.227c0-1.614-2.026-8.539-4.662-12.74c-0.55-0.877-1.44-0.674-2.515-0.361
	c-0.709,0.207-1.072,0.543-1.072,2.875c0,2.333-1.436-0.004-2.152-1.26c-0.719-1.256-1.979-2.691-3.594-3.051
	C62.404,9.523,62.113,9.491,61.83,9.487L61.83,9.487z"/>
<polygon fill="#ED2624" points="47.323,48.001 47.323,64.333 62.323,56.167 "/>
<path id="rabbit_1_" fill="#FFFFFF" stroke="#010101" stroke-miterlimit="10" d="M7.642,6.105C6.604,6.749,6.114,7.741,6.744,8.724
	c0.774,1.209,3.759,6.541,5.276,7.913c1.519,1.371,4.889,2.642,7.304,3.421c1.881,0.605,3.262,4.086,4.229,5.597
	c0.967,1.511,1.439,2.917,0.834,3.304c-0.604,0.387-1.121,1.569-1.338,2.562c-0.217,0.99-0.337,2.135-1.48,2.014
	c-1.143-0.12-2.89,0.149-5.597,1.243c-2.708,1.097-6.498,4.159-8.485,6.71c-1.988,2.553-4.234,11.023-4.294,14.258
	c-0.059,3.233,4.243,10.276,5.071,11.236c0.829,0.962,0.858,2.012-0.478,1.59C6.45,68.149,6.14,68.988,6.14,68.988
	s0.21,1.994,0.694,2.749C7.319,72.494,8.1,73.052,8.1,73.052s-0.625,1.685-0.239,2.287c0.388,0.604,2.274,0.889,3.611,1.311
	c1.336,0.422,5.066,0.592,6.027-0.236s3.023-1.938,4.067-1.968c1.047-0.03,3.246-0.589,5.608-1.888
	c1.173-0.646,1.839-13.012,9.659-19.475c12.089-9.994,11.672-14.591,11.69-15.073c0.031-0.803-0.779-4.708-1.531-5.932
	c-0.805-1.306-1.582-1.246-2.52-1.711c-0.937-0.465-0.709-2.102-0.104-2.489c0.604-0.387,3.031-2.585,3.8-3.716
	c0.767-1.131,0.567-3.775,0.742-5.166c0.176-1.391-1.688-2.965-3.132-2.892c-1.444,0.073-2.513-1.589-4.096-2.066
	c-1.584-0.478-4.09-2.065-5.48-2.24c-1.391-0.175-3.894,0.575-4.649,1.06c-0.756,0.484-1.208,0.774-1.596,0.17
	c-0.387-0.604-1.021-1.26-1.892-2.619c-0.871-1.359-6.314-6.097-10.799-8.214c-0.936-0.44-1.578,0.211-2.312,1.052
	c-0.486,0.558-0.61,1.036,0.647,3.001c1.258,1.964-1.21,0.771-2.491,0.1c-1.283-0.669-3.118-1.2-4.672-0.631
	C8.146,5.826,7.883,5.956,7.642,6.105L7.642,6.105z"/>
<g>
	<g>
		<path fill="#100D0E" d="M32.417,21.785c1.034,0,3.104-1.568,1.147-1.568C32.53,20.217,30.46,21.785,32.417,21.785L32.417,21.785z"
			/>
	</g>
</g>
<g>
	<g>
		<path fill="#100D0E" d="M76.727,35.625c0.646,0,3.314-1.248,1.861-1.248C77.941,34.377,75.273,35.625,76.727,35.625L76.727,35.625
			z"/>
	</g>
</g>
<g enable-background="new    ">
	<path d="M124.826,18.428c0,0,0.102-0.083,0.306-0.25c0.204-0.167,0.371-0.25,0.501-0.25c0.129,0,0.529,0.111,1.197,0.334
		c0,2.969,0.121,7.408,0.362,13.317c0.241,5.91,0.362,10.669,0.362,14.279c0,3.607,0.121,7.045,0.362,10.311l-0.362,0.641
		c-0.038-0.391-0.622-0.584-1.753-0.584c-0.186-8.443-0.278-13.535-0.278-15.281l-0.139-0.223l0.195-0.5
		c0-0.594-0.065-1.299-0.195-2.115l-0.891-0.223c-0.334,0.111-0.714,0.166-1.141,0.166l-3.646-0.584l-0.584,0.223l-0.167,7.181
		l0.167,0.25l0.334,9.518c0,0.984-0.316,1.477-0.946,1.477c-0.835,0-1.252-1.143-1.252-3.424l0.111-10.438
		c0-3.451-0.056-5.306-0.167-5.566c0.185-0.371,0.278-1.633,0.278-3.785l-0.417-13.332c0-0.26,0.098-0.505,0.292-0.738
		c0.195-0.231,0.422-0.348,0.682-0.348c0.761,0,1.141,1.104,1.141,3.312l-0.223,13.916c0,0.445,1.521,0.668,4.564,0.668
		c0.724,0,1.248-0.134,1.572-0.403c0.325-0.269,0.487-1.016,0.487-2.24s-0.125-3.586-0.376-7.083
		c-0.25-3.498-0.375-6.119-0.375-7.863C124.826,18.549,124.826,18.428,124.826,18.428z M123.963,35.6l0.111,0.111h-0.111V35.6z"/>
	<path d="M145.505,30.562l0.056,1.141c-0.074,0.966-0.125,2.265-0.153,3.896c-0.027,1.634-0.056,3.183-0.083,4.648
		c-0.028,1.466-0.08,3.052-0.153,4.759c-0.074,1.707-0.223,3.238-0.445,4.592c-0.52,3.229-1.364,5.381-2.533,6.457
		c-1.262,1.188-2.737,1.309-4.425,0.361c-0.724-0.406-1.332-0.918-1.823-1.529c-0.492-0.613-0.886-2.584-1.183-5.914
		c-0.297-3.33-0.473-6.842-0.529-10.535c-0.167-11.096-0.344-17.423-0.529-18.982l0.362-0.807c0.872,0.111,1.308,1.16,1.308,3.145
		l0.167,15.113l0.612,12.08c0,4.322,1.429,6.484,4.286,6.484c1.763,0,2.876-3.98,3.34-11.939c0.037-0.539,0.125-3.107,0.265-7.71
		c0.139-4.601,0.208-10.148,0.208-16.643l-0.111-1.03c0-0.427,0.273-0.64,0.821-0.64s0.872,0.125,0.975,0.375
		c0.102,0.251,0.153,1.374,0.153,3.368s-0.121,3.465-0.362,4.411c0.037,0.074,0.056,0.195,0.056,0.361L145.505,30.562z"/>
	<path d="M175.034,44.812l-0.111,5.984c0,2.654,0.186,4.629,0.557,5.928c0.074,0.223,0.111,0.465,0.111,0.725
		s-0.116,0.602-0.348,1.029c-0.232,0.426-0.534,0.641-0.905,0.641c-0.761,0-1.141-1.217-1.141-3.646
		c0-7.922-0.061-12.752-0.181-14.486c-0.121-1.735-0.251-3.14-0.39-4.216c-0.14-1.076-0.209-1.902-0.209-2.478l0.223-7.069
		c0-1.336-0.074-2.235-0.223-2.699c-0.742,0.594-3.024,8.6-6.847,24.019c-0.037,0.129-0.079,0.408-0.125,0.834
		c-0.047,0.428-0.103,0.822-0.167,1.184c-0.065,0.361-0.153,0.736-0.265,1.127c-0.241,0.854-0.631,1.279-1.169,1.279
		c-0.631,0-1.071-0.152-1.322-0.459c-0.25-0.305-0.375-0.773-0.375-1.404c0-1.559-0.984-6.271-2.951-14.139
		c-1.967-7.867-3.283-12.125-3.951-12.774c-0.094,2.041-0.261,5.167-0.502,9.379c-0.5,8.777-0.751,14.667-0.751,17.673
		s0.019,4.76,0.056,5.26c-0.167,0.502-0.566,0.752-1.197,0.752c-0.13,0-0.324-0.102-0.584-0.307c-0.26-0.203-0.39-0.371-0.39-0.5
		c0-4.008,0.297-10.002,0.891-17.98c0.594-7.979,0.891-13.972,0.891-17.979l-0.334-1.085c0-0.575,0.51-0.863,1.53-0.863
		c0.575,0,0.947,0.297,1.113,0.891c0.13,0.464,0.209,0.942,0.237,1.434c0.027,0.492,0.097,1.048,0.208,1.67s0.599,1.902,1.462,3.841
		c0.862,1.938,1.387,3.252,1.572,3.938s0.427,1.53,0.724,2.532c0.612,2.171,1.021,3.804,1.225,4.898l0.752,1.503
		c0.111,0.631,0.324,1.558,0.64,2.783c0.631,2.58,0.965,4.631,1.002,6.15c0.445-0.668,1.642-4.596,3.591-11.786
		c1.947-7.19,3.01-11.259,3.187-12.204c0.176-0.947,0.301-1.666,0.376-2.157c0.073-0.492,0.147-0.881,0.223-1.169
		c0.073-0.288,0.176-0.636,0.306-1.044c0.278-0.779,0.742-1.169,1.392-1.169c0.241,0,0.538,0.111,0.891,0.334
		s0.529,0.455,0.529,0.696C174.283,35.6,174.533,43.978,175.034,44.812z M172.418,24.189h-0.056l-0.083,0.055l0.139,0.057V24.189z"
		/>
	<path d="M183.496,45.173l0.473,11.105c0,0.688-0.361,1.029-1.085,1.029l-0.808-0.445c-0.427-2.281-0.64-5.018-0.64-8.209
		l0.251-10.605c-0.242-0.557-0.362-0.992-0.362-1.308c0.39-0.649,0.585-2.402,0.585-5.261c0-6.771-0.111-10.455-0.334-11.049
		c0.37-0.946,0.648-1.419,0.834-1.419h2.506c0.463,0,1.08,0.208,1.851,0.626c0.77,0.417,1.396,0.831,1.878,1.238
		c0.947,0.873,1.42,3.117,1.42,6.735c0,3.21-0.139,5.153-0.418,5.831c-0.277,0.678-0.575,1.271-0.891,1.781
		s-0.714,0.932-1.196,1.266c-1.058,0.762-2.412,1.393-4.063,1.893V45.173z M183.44,22.296l0.278,8.21l-0.223,5.372l0.361,0.557
		c2.783,0,4.24-2.923,4.37-8.768c0-0.408,0-0.918,0-1.531c0-0.611-0.019-1.131-0.056-1.559c-0.037-0.426-0.125-0.899-0.265-1.419
		c-0.139-0.519-0.329-0.937-0.57-1.252c-0.575-0.761-1.457-1.141-2.644-1.141c-0.502,0-0.836,0.121-1.002,0.362
		C183.523,21.369,183.44,21.758,183.44,22.296z"/>
	<path d="M202.755,43.867l0.056,9.045c0,2.746-0.399,4.119-1.197,4.119c-0.13,0-0.287-0.074-0.473-0.223s-0.307-0.287-0.361-0.418
		c0.37-0.928,0.557-4.248,0.557-9.963c0-1.113-0.07-2.701-0.209-4.76c-0.14-2.06-0.219-3.405-0.236-4.036l-0.362-0.724l0.167-0.695
		c-0.482-1.113-1.373-3.517-2.672-7.209c-1.893-5.288-2.857-8.359-2.895-9.212l0.779-0.612c0.371,0.056,0.928,1.266,1.67,3.632
		c0.742,2.365,1.471,4.736,2.185,7.11c0.714,2.376,1.22,3.601,1.517,3.674l0.223-1.029l-0.111-0.278
		c0.279-0.334,0.645-1.684,1.1-4.05c0.455-2.365,0.941-4.61,1.461-6.735c0.52-2.124,1.021-3.187,1.504-3.187
		c0.481,0,0.723,0.205,0.723,0.612c0,0.408-0.204,1.332-0.611,2.77c-0.409,1.438-0.789,2.751-1.142,3.938s-0.617,2.105-0.793,2.755
		c-0.177,0.649-0.376,1.466-0.599,2.449c-0.445,1.855-0.668,3.591-0.668,5.204c0.186,0.465,0.278,0.789,0.278,0.975l-0.334,1.643
		L202.755,43.867z"/>
	<path d="M224.187,34.152l0.111,6.791c0,8.555-1.374,13.76-4.119,15.615c-0.668,0.463-1.42,0.695-2.255,0.695
		c-4.453,0-6.68-6.994-6.68-20.986c0-5.398,0.371-10.084,1.113-14.055c0.557-2.895,1.4-4.342,2.532-4.342
		c0.26,0,0.506,0.102,0.738,0.306c0.231,0.205,0.547,0.375,0.946,0.515c0.398,0.139,0.946,0.274,1.642,0.403
		c0.696,0.13,1.192,0.223,1.489,0.278c0.761,0.13,1.493,0.863,2.198,2.199c1.596,2.709,2.395,6.81,2.395,12.302L224.187,34.152z
		 M213.025,36.213l0.111,4.507c0,3.619,0.408,7.061,1.225,10.326c0.297,1.225,0.737,2.293,1.322,3.201
		c0.584,0.91,1.252,1.363,2.004,1.363c0.751,0,1.409-0.277,1.976-0.834s1.016-1.332,1.35-2.324s0.613-2.004,0.836-3.033
		c0.223-1.031,0.38-2.186,0.473-3.467c0.148-2.039,0.223-3.857,0.223-5.455l-0.641-13.47l-0.223-0.445l0.111-0.277
		c0-1.651-0.464-3.09-1.391-4.314c-0.929-1.225-2.061-1.837-3.396-1.837h-2.393c-0.316,0-0.595,1.693-0.836,5.079
		c-0.241,3.387-0.398,5.266-0.473,5.637L213.025,36.213z"/>
	<path d="M241.832,30.562l0.056,1.141c-0.074,0.966-0.125,2.265-0.153,3.896c-0.027,1.634-0.056,3.183-0.083,4.648
		c-0.028,1.466-0.079,3.052-0.153,4.759s-0.223,3.238-0.445,4.592c-0.52,3.229-1.363,5.381-2.533,6.457
		c-1.262,1.188-2.736,1.309-4.425,0.361c-0.724-0.406-1.332-0.918-1.823-1.529c-0.491-0.613-0.886-2.584-1.183-5.914
		s-0.474-6.842-0.528-10.535c-0.168-11.096-0.344-17.423-0.529-18.982l0.361-0.807c0.872,0.111,1.309,1.16,1.309,3.145l0.167,15.113
		l0.612,12.08c0,4.322,1.429,6.484,4.286,6.484c1.763,0,2.876-3.98,3.34-11.939c0.037-0.539,0.125-3.107,0.265-7.71
		c0.139-4.601,0.209-10.148,0.209-16.643l-0.111-1.03c0-0.427,0.273-0.64,0.82-0.64s0.872,0.125,0.975,0.375
		c0.102,0.251,0.152,1.374,0.152,3.368s-0.12,3.465-0.361,4.411c0.037,0.074,0.056,0.195,0.056,0.361L241.832,30.562z"/>
	<path d="M257.111,20.432l-3.089-0.39l-0.279,0.334l0.111,0.223c-0.074,0.149-0.111,1.234-0.111,3.256
		c0,2.023,0.315,6.75,0.947,14.18c0.63,7.431,0.945,13.003,0.945,16.712c0,0.279-0.111,0.529-0.334,0.752s-0.473,0.334-0.751,0.334
		l-0.64-0.473l-0.111-4.146l0.111-2.004c0-0.52-0.075-0.975-0.223-1.365c0-3.229-0.228-7.931-0.683-14.11s-0.7-10.743-0.737-13.693
		c-2.987,0-4.583-0.362-4.787-1.085c0.167-0.427,0.529-0.64,1.086-0.64l7.736,0.529l1.03-0.056c0.687,0,1.03,0.241,1.03,0.724
		c0,0.26-0.14,0.478-0.418,0.654C257.668,20.344,257.39,20.432,257.111,20.432z"/>
	<path d="M275.091,30.562l0.056,1.141c-0.074,0.966-0.125,2.265-0.153,3.896c-0.027,1.634-0.056,3.183-0.083,4.648
		c-0.028,1.466-0.079,3.052-0.153,4.759s-0.223,3.238-0.445,4.592c-0.52,3.229-1.363,5.381-2.533,6.457
		c-1.262,1.188-2.736,1.309-4.425,0.361c-0.724-0.406-1.332-0.918-1.823-1.529c-0.491-0.613-0.886-2.584-1.183-5.914
		s-0.474-6.842-0.528-10.535c-0.168-11.096-0.344-17.423-0.529-18.982l0.361-0.807c0.872,0.111,1.309,1.16,1.309,3.145l0.167,15.113
		l0.612,12.08c0,4.322,1.429,6.484,4.286,6.484c1.763,0,2.876-3.98,3.34-11.939c0.037-0.539,0.125-3.107,0.265-7.71
		c0.139-4.601,0.209-10.148,0.209-16.643l-0.111-1.03c0-0.427,0.273-0.64,0.82-0.64s0.872,0.125,0.975,0.375
		c0.102,0.251,0.152,1.374,0.152,3.368s-0.12,3.465-0.361,4.411c0.037,0.074,0.056,0.195,0.056,0.361L275.091,30.562z"/>
	<path d="M282.104,19.179c0-0.983,0.399-1.475,1.197-1.475c0.52,0,1.498,0.223,2.937,0.668c1.438,0.445,2.166,0.845,2.185,1.197
		c-0.037,0.074-0.056,0.13-0.056,0.167c0.705,1.113,1.178,2.231,1.419,3.354c0.241,1.123,0.362,2.811,0.362,5.065
		c0,2.254-0.306,4.216-0.919,5.886h0.057c-0.149,0.354-0.441,0.85-0.877,1.489c-0.437,0.641-0.701,1.044-0.793,1.211
		c0.741,0.575,1.331,1.396,1.767,2.463c0.436,1.067,0.705,2.018,0.808,2.852c0.102,0.836,0.181,1.838,0.236,3.006l0.056,1.477v0.807
		c0,3.637-1.132,6.328-3.396,8.07c-1.206,0.928-2.663,1.393-4.369,1.393c-0.334,0-0.599-0.115-0.794-0.348
		c-0.194-0.232-0.302-0.523-0.319-0.877c-0.02-0.352-0.028-0.938-0.028-1.754l0.585-12.023l-0.111-5.065l0.334-13.638
		c0-1.447-0.02-2.551-0.057-3.312l-0.223-0.278V19.179z M283.523,51.994l0.056,2.588c1.41,0,2.616-0.664,3.618-1.99
		s1.503-2.723,1.503-4.189V48.32c0.019-0.334,0.028-0.658,0.028-0.975c0-0.314-0.015-0.857-0.042-1.629
		c-0.028-0.77-0.089-1.475-0.181-2.115c-0.094-0.639-0.256-1.35-0.487-2.129c-0.232-0.779-0.506-1.437-0.821-1.976
		c-0.779-1.279-1.855-1.92-3.229-1.92c-0.186,2.839-0.278,5.349-0.278,7.529s0.056,3.566,0.167,4.16
		C283.635,49.673,283.523,50.583,283.523,51.994z M283.857,30.173l-0.056,3.979v0.696l0.223,0.751h0.417
		c2.506,0,3.758-2.532,3.758-7.598c0-0.687-0.056-1.865-0.167-3.535l-0.111-0.111c-0.241-3.154-1.196-4.731-2.866-4.731
		c-0.836,0-1.253,2.496-1.253,7.487L283.857,30.173z"/>
	<path d="M296.521,55.722l0.057-1.447l-0.195-0.223c0.278-0.76,0.418-1.539,0.418-2.338l-0.279-7.514l0.391-17.173l-0.223-6.818
		c0-1.076,0.547-1.614,1.642-1.614c0.427,0,0.732,0.121,0.919,0.362c0.129,0.038,0.677,0.111,1.642,0.223
		c2.338,0.26,3.534,0.733,3.591,1.419c0,0.297-0.362,0.659-1.086,1.085c-2.097-0.686-3.637-1.048-4.62-1.085l-0.278,0.334
		c0.037,0.539,0.056,1.354,0.056,2.449l-0.223,8.851c0,1.058,0.269,1.586,0.808,1.586l1.92-0.111c1.447,0,2.189,0.344,2.227,1.03
		c0,0.39-0.098,0.733-0.292,1.03c-0.195,0.297-0.543,0.445-1.044,0.445s-0.872-0.148-1.113-0.445l-1.865-0.279h-0.25l-0.278,0.279
		v0.166c0.074,0.984,0.111,2.487,0.111,4.509l-0.111,8.1c0,3.785,0.26,5.881,0.779,6.289c0.334,0.279,0.946,0.418,1.837,0.418
		l2.115-0.111c1.113,0,1.67,0.25,1.67,0.752c0,0.686-0.826,1.029-2.477,1.029h-4.704C296.958,56.919,296.578,56.521,296.521,55.722z
		"/>
</g>
<path fill="#FFFFFF" stroke="#010101" stroke-miterlimit="10" d="M49.611,56.692"/>
</svg>
