<?xml version="1.0" encoding="utf-8"?>
<!-- Generator: Adobe Illustrator 16.0.0, SVG Export Plug-In . SVG Version: 6.00 Build 0)  -->
<!DOCTYPE svg PUBLIC "-//W3C//DTD SVG 1.1//EN" "http://www.w3.org/Graphics/SVG/1.1/DTD/svg11.dtd">
<svg version="1.1" id="Layer_1" xmlns="http://www.w3.org/2000/svg" xmlns:xlink="http://www.w3.org/1999/xlink" x="0px" y="0px"
	 width="324.166px" height="79.667px" viewBox="0 0 324.166 79.667" enable-background="new 0 0 324.166 79.667"
	 xml:space="preserve">
<path fill="none" stroke="#000000" stroke-miterlimit="10" d="M250.909-34.665"/>
<path fill="none" stroke="#000000" stroke-miterlimit="10" d="M65.333,84.335"/>
<path id="rabbit" fill="#FFFFFF" stroke="#010101" stroke-miterlimit="10" d="M61.83,9.487c-1.221-0.019-2.169,0.553-2.169,1.719
	c0,1.436-0.362,7.536,0.175,9.51c0.539,1.974,2.691,4.861,4.307,6.82c1.256,1.524,0.541,5.199,0.541,6.994
	c0,1.794-0.36,3.232-1.078,3.232c-0.717,0-1.791,0.717-2.51,1.435c-0.717,0.718-1.436,1.616-2.332,0.898
	c-0.897-0.718-2.515-1.434-5.385-1.972c-2.871-0.539-7.714-0.004-10.764,1.073c-3.05,1.076-9.512,6.999-11.306,9.688
	c-1.794,2.691-1.971,10.943-1.791,12.199c0.179,1.256-0.363,2.156-1.26,1.08s-1.61-0.537-1.61-0.537s-0.898,1.793-0.898,2.688
	c0,0.896,0.356,1.791,0.356,1.791s-1.435,1.079-1.435,1.797c0,0.719,1.436,1.977,2.333,3.053c0.897,1.074,3.948,3.229,5.204,3.051
	c1.256-0.18,3.589-0.002,4.486,0.537s3.049,1.256,5.74,1.436s10.225,0.717,12.199,0.717c1.975,0,2.516-0.357,3.412-1.254
	s-0.721-1.977-1.26-3.232c-0.538-1.256,1.797-0.894,2.514-1.071c0.719-0.181,2.694-1.437,3.949-1.437
	c1.257,0,1.076,1.254,2.689,1.973c1.615,0.719,3.946,3.049,5.742,3.406c1.793,0.358,5.92,0.002,7.354-0.537
	c1.437-0.537,1.256-1.791,0-2.688c-1.257-0.896-4.304-2.518-4.843-3.412c-0.539-0.896-0.717-1.975,0.181-2.871
	c0.897-0.896,1.792-0.535,3.228-1.254c1.436-0.718,1.973-2.874,1.973-4.13s0.171-2.621,0.717-3.407
	c0.459-0.656,0.637-2.76,0.662-4.193c0.027-1.533-0.66-1.902-1.198-2.801c-0.538-0.896,0.536-2.152,1.255-2.152
	c0.717,0,3.947-0.541,5.203-1.078c1.256-0.539,2.516-2.873,3.412-3.949s0.178-3.407-1.078-4.125
	c-1.256-0.717-1.258-2.693-2.334-3.949c-1.076-1.256-2.33-3.945-3.406-4.842c-1.076-0.897-3.59-1.616-4.486-1.616
	s-1.436,0-1.436-0.718c0-0.717-0.181-1.611-0.181-3.227c0-1.614-2.026-8.539-4.662-12.74c-0.55-0.877-1.44-0.674-2.515-0.361
	c-0.709,0.207-1.072,0.543-1.072,2.875c0,2.333-1.436-0.004-2.152-1.26c-0.719-1.256-1.979-2.691-3.594-3.051
	C62.404,9.523,62.113,9.491,61.83,9.487L61.83,9.487z"/>
<polygon fill="#ED2624" points="47.323,48.001 47.323,64.333 62.323,56.167 "/>
<path id="rabbit_1_" fill="#FFFFFF" stroke="#010101" stroke-miterlimit="10" d="M7.642,6.105C6.604,6.749,6.114,7.741,6.744,8.724
	c0.774,1.209,3.759,6.541,5.276,7.913c1.519,1.371,4.889,2.642,7.304,3.421c1.881,0.605,3.262,4.086,4.229,5.597
	c0.967,1.511,1.439,2.917,0.834,3.304c-0.604,0.387-1.121,1.569-1.338,2.562c-0.217,0.99-0.337,2.135-1.48,2.014
	c-1.143-0.12-2.89,0.149-5.597,1.243c-2.708,1.097-6.498,4.159-8.485,6.71c-1.988,2.553-4.234,11.023-4.294,14.258
	c-0.059,3.233,4.243,10.276,5.071,11.236c0.829,0.962,0.858,2.012-0.478,1.59C6.45,68.149,6.14,68.988,6.14,68.988
	s0.21,1.994,0.694,2.749C7.319,72.494,8.1,73.052,8.1,73.052s-0.625,1.685-0.239,2.287c0.388,0.604,2.274,0.889,3.611,1.311
	c1.336,0.422,5.066,0.592,6.027-0.236s3.023-1.938,4.067-1.968c1.047-0.03,3.246-0.589,5.608-1.888
	c1.173-0.646,1.839-13.011,9.659-19.475c12.089-9.993,11.672-14.591,11.69-15.072c0.031-0.803-0.779-4.708-1.531-5.932
	c-0.805-1.306-1.582-1.246-2.52-1.711c-0.937-0.465-0.709-2.102-0.104-2.489c0.604-0.387,3.031-2.585,3.8-3.716
	c0.767-1.131,0.567-3.775,0.742-5.166c0.176-1.391-1.688-2.965-3.132-2.892c-1.444,0.073-2.513-1.589-4.096-2.066
	c-1.584-0.478-4.09-2.065-5.48-2.24c-1.391-0.175-3.894,0.575-4.649,1.06c-0.756,0.484-1.208,0.774-1.596,0.17
	c-0.387-0.604-1.021-1.26-1.892-2.619c-0.871-1.359-6.314-6.097-10.799-8.214c-0.936-0.44-1.578,0.211-2.312,1.052
	c-0.486,0.558-0.61,1.036,0.647,3.001c1.258,1.964-1.21,0.771-2.491,0.1c-1.283-0.669-3.118-1.2-4.672-0.631
	C8.146,5.826,7.883,5.956,7.642,6.105L7.642,6.105z"/>
<g>
	<g>
		<path fill="#100D0E" d="M32.417,21.785c1.034,0,3.104-1.568,1.147-1.568C32.53,20.217,30.46,21.785,32.417,21.785L32.417,21.785z"
			/>
	</g>
</g>
<g>
	<g>
		<path fill="#100D0E" d="M76.727,35.625c0.646,0,3.314-1.248,1.861-1.248C77.941,34.377,75.273,35.625,76.727,35.625L76.727,35.625
			z"/>
	</g>
</g>
<text transform="matrix(1 0 0 1 114.166 56.1675)" font-family="'AmaticSC-Regular'" font-size="57">humpyoutube</text>
<path fill="#FFFFFF" stroke="#010101" stroke-miterlimit="10" d="M49.611,56.692"/>
</svg>
